# xmcd
#
# Track frame offsets:
#	150
#	16003
#	31613
#	46160
#	61705
#	76947
#	92123
#	108734
#	124650
#	139920
#	155318
#	170886
#	185508
#	201121
#	216182
#	230728
#	246223
#	261221
#	277275
#	291049
#
# Disc length: 4079 seconds
#
# Revision: 0
# Processed by: cddbd v1.5.2PL0 Copyright (c) Steve Scherf et al.
# Submitted via: EasyCDDAExtractor 16.0.6.1
#
DISCID=1f0fed14
DTITLE=Συλλογικός δίσκος - Τα ρεμπέτικα Γ 1937-1960 20 Β
DYEAR=2010
DGENRE=Ρεμπέτικη
TTITLE0=Τζουανάκος Σταύρος-Τατασσόπουλος Γ.-Πλέσσας Στ. - Μάγισσες [ζεϊμπ., Γ.
TTITLE0=Τατασσόπουλος-Ν.Ρούτσος, Αθ12.1953]
TTITLE1=Νίνου Μαρίκα-Τσιτσάνης Βασίλης - Έλα όπως είσαι [ζεϊμπ., Β. Τσιτσάνης,
TTITLE1=Αθ 1953 ή 54]
TTITLE2=Καζαντζίδης Στέλιος-Χιώτης Μανώλης - Θεσσαλονίκη [χασ., Μ.Χιώτης-Χ.Κολ
TTITLE2=οκοτρώνης, Αθ6.1956]
TTITLE3=Μπιθικώτσης Γρηγόρης-Κώτσογλου Ελένη - Το τρελλοκόριτσο [ζεϊμπ.,Γ. Μπι
TTITLE3=θικώτσης, Αθήνα 1955]
TTITLE4=Μπέλλου Σωτηρία - Είπα να σβύσω τα παλιά [ζεϊμπ., Α.Καλδάρας-Αιμ.Σαββί
TTITLE4=δης,Αθ1953]
TTITLE5=Μπίνης Τάκης-Νίνου Μαρίκα - Θα κάνω ντού βρε πονηρή [ζεϊμπ., Β.Τσιτσάν
TTITLE5=ης-Κ.Βίρβος,Αθ 1954]
TTITLE6=Μπέλλου Σωτηρία-Ζαγοραίος Σ.-Τατασσόπουλος Γ. - Γράμμα θα στείλω στο Θ
TTITLE6=εό [ζεϊμπ. Μ.Μπακάλης-Κ.Βίρβος, Αθ 1953]
TTITLE7=Καζαντζίδης Στέλιος-Γκρέϋ Καίτη - Στη θάλασσα θα πέσω [ζεϊμπ., Γ.Ζαμπέ
TTITLE7=τας-Χ.Βασιλειάδης,Αθ 1953]
TTITLE8=Νίνου Μαρίκα-Τσιτσάνης Βασίλης - Τι σήμερα,τι αύριο, τι τώρα [χασ. Β. 
TTITLE8=Τσιτσάνης, Αθ 1953 ή 54]
TTITLE9=Μπιθικώτσης Γρηγόρης - Το μπουζούκι στο Παρίσι [χασ/σέρβ. Μ.Βαμβακάρης
TTITLE9=, Αθ 1960]
TTITLE10=Μπίνης Τάκης-Λίντα Μαίρη - Ένας αλήτης πέθανε [ζεϊμπ., Κ. Καπλάνης, Α
TTITLE10=θ 1953 ή 54]
TTITLE11=Νίνου Μαρίκα-Σαλασίδης Γ.-Γιαννόπουλος Αθ. - Ζαΐρα [ανατ. Β.Τσιτσάνης
TTITLE11=Κ.Βίρβος, Αθήνα 1954]
TTITLE12=Καζαντζίδης Στέλιος - Γεντί κουλέ [ζεϊμπ. Γ. Μητσάκης, Αθήνα 8.1956]
TTITLE13=Χρυσάφη Άννα-Λίντα Μ.-Τσιτσάνης Β.-Γιαννόπουλος Αθ. - Στο Τούνεζι στη
TTITLE13=ν Μπαρμπαριά(Ανάθεμά σε θ)[καλ.Β.Τιστσάνης,Αθ1953]
TTITLE14=Μπιθικώτσης Γρηγόρης - Αντιλαλούν οι φυλακές [ζεϊμπ., Μ.Βαμβακάρης, Α
TTITLE14=θήνα 1960]
TTITLE15=Ευγενικός Αθανάσιος-Καλφοπούλου Σ.-Σταμούλης Γ. - Το μαγγαλάκι [ζεϊμπ
TTITLE15=, Α.Χατζηχρήστος-Γ.Φωτίδας, Αθ 1953]
TTITLE16=Παγιουμτζής Στράτος-Γκίκα Β.-Τσαγγάρης Ελ. - Θα χτίσω στην Ελλάδα και
TTITLE16=νούργιο Χόλυγουντ[χσέρβ.Ελ.Τσαγγάρης,Α1956]
TTITLE17=Νίνου Μαρίκα-Μπίνης Τάκης - Γεννήθηκα για να πονώ [ζεϊμπ., Β.Τσιτσάνη
TTITLE17=ς, Αθ 2.1954]
TTITLE18=Μπιθικώτσης Γρηγόρης - Τα ματόκλαδά σου λάμπουν [ζεϊμπ.καμ.Μ.Βαμβακάρ
TTITLE18=ης,Αθ 1960]
TTITLE19=Καζαντζίδης Στέλιος-Μαρινέλλα - Τώρα που φεύγω απ' τη ζωή[ζ.Β.Καραπατ
TTITLE19=άκης-Ε.Παπαγιανοπούλου,Αθ1960]
EXTD=
EXTT0=
EXTT1=
EXTT2=
EXTT3=
EXTT4=
EXTT5=
EXTT6=
EXTT7=
EXTT8=
EXTT9=
EXTT10=
EXTT11=
EXTT12=
EXTT13=
EXTT14=
EXTT15=
EXTT16=
EXTT17=
EXTT18=
EXTT19=
PLAYORDER=
